<?xml version="1.0" standalone="no"?><!DOCTYPE svg PUBLIC "-//W3C//DTD SVG 1.1//EN" "http://www.w3.org/Graphics/SVG/1.1/DTD/svg11.dtd"><svg t="1528097745446" class="icon" style="" viewBox="0 0 1024 1024" version="1.1" xmlns="http://www.w3.org/2000/svg" p-id="4339" xmlns:xlink="http://www.w3.org/1999/xlink" width="20" height="20"><defs><style type="text/css"></style></defs><path d="M530.4 620.8C459.2 655.2 371.2 643.2 312 584c-52.8-52.8-68-128-47.2-193.6 12-2.4 15.2-3.2 27.2-5.6l60 64h56l40-40v-56l-64-60c2.4-12 3.2-15.2 5.6-27.2C456 244 531.2 260 584 312c59.2 59.2 71.2 147.2 37.6 218.4l249.6 249.6c56-74.4 88.8-168 88.8-268 0-247.2-200.8-448-448-448S64 264.8 64 512s200.8 448 448 448c100.8 0 193.6-32.8 268-88.8L530.4 620.8z" p-id="4340"></path></svg>