<?xml version="1.0" standalone="no"?><!DOCTYPE svg PUBLIC "-//W3C//DTD SVG 1.1//EN" "http://www.w3.org/Graphics/SVG/1.1/DTD/svg11.dtd"><svg t="1528097761364" class="icon" style="" viewBox="0 0 1024 1024" version="1.1" xmlns="http://www.w3.org/2000/svg" p-id="4468" xmlns:xlink="http://www.w3.org/1999/xlink" width="20" height="20"><defs><style type="text/css"></style></defs><path d="M528.8 480v96H704v32H528.8v224h-32V608H320v-32h176.8V480H320v-32h156.8L331.2 302.4l22.4-22.4 159.2 159.2L672 280l22.4 22.4L548 448H704v32H528.8z m400.8-131.2C864 182.4 701.6 64 512 64 264.8 64 64 264.8 64 512s200.8 448 448 448c109.6 0 210.4-39.2 288-104.8v72.8h32v-128H704v32h73.6c-72 60-164.8 96-265.6 96-229.6 0-416-186.4-416-416s186.4-416 416-416c176.8 0 328 110.4 388 266.4 1.6 6.4 8 12 15.2 12 8.8 0 16-7.2 16-16 0.8-4 0-7.2-1.6-9.6z" p-id="4469"></path></svg>